<svg version="1.0"
    xmlns="http://www.w3.org/2000/svg" width="64.000000pt" height="64.000000pt" viewBox="0 0 64.000000 64.000000" preserveAspectRatio="xMidYMid meet">

    <g transform="translate(0.000000,64.000000) scale(0.100000,-0.100000)" fill="#0ea5e9" stroke="none">
        <path d="M333 578 c-27 -26 -34 -29 -47 -19 -9 7 -23 10 -32 7 -15 -6 -13 -11
11 -36 16 -17 34 -30 41 -30 17 0 96 89 89 100 -11 17 -30 11 -62 -22z"/>
        <path d="M261 434 c-25 -20 -31 -34 -31 -64 0 -41 31 -90 58 -90 9 -1 -3 -11
-27 -23 -68 -34 -86 -65 -86 -150 l0 -72 145 0 145 0 0 70 c0 84 -24 127 -89
155 -23 10 -33 19 -24 19 27 1 58 50 58 91 0 30 -6 44 -31 64 -17 15 -43 26
-59 26 -16 0 -42 -11 -59 -26z"/>
        <path d="M60 360 c-27 -27 -26 -75 2 -103 l23 -22 -30 -20 c-39 -27 -55 -60
-55 -117 l0 -48 65 0 65 0 0 48 c1 26 7 65 15 87 18 49 18 45 -1 45 -10 0 -7
7 12 23 33 28 37 76 9 107 -24 26 -79 26 -105 0z"/>
        <path d="M471 354 c-28 -36 -26 -60 8 -95 18 -18 24 -29 15 -29 -17 0 -17 4 1
-45 8 -22 14 -61 15 -87 l0 -48 65 0 65 0 0 54 c0 44 -5 60 -25 85 -14 16 -35
33 -46 36 -19 6 -19 8 5 30 52 48 22 125 -48 125 -25 0 -40 -7 -55 -26z"/>
    </g>
</svg>
